HIERARCHY
ROOT Hips
{
	OFFSET 0.000000 89.005402 0.000000
	CHANNELS 6 Xposition Yposition Zposition Xrotation Yrotation Zrotation
	JOINT Spine
	{
		OFFSET 0.116900 10.681000 0.373400
		CHANNELS 3 Xrotation Yrotation Zrotation
		JOINT Spine1
		{
			OFFSET 0.000000 13.840401 0.053500
			CHANNELS 3 Xrotation Yrotation Zrotation
			JOINT Spine2
			{
				OFFSET 0.000000 14.712700 -0.366200
				CHANNELS 3 Xrotation Yrotation Zrotation
				JOINT Neck
				{
					OFFSET 0.000000 35.415497 -3.314200
					CHANNELS 3 Xrotation Yrotation Zrotation
					JOINT Head
					{
						OFFSET 0.000000 16.899200 1.218300
						CHANNELS 3 Xrotation Yrotation Zrotation
						JOINT HeadTop_End
						{
							OFFSET 0.000000 22.206207 2.192500
							CHANNELS 3 Xrotation Yrotation Zrotation
							End Site
							{
								OFFSET 0.000000 22.314178 0.000000
							}
						}
					}
				}
				JOINT LeftShoulder
				{
					OFFSET 12.896400 26.716293 -4.548400
					CHANNELS 3 Xrotation Yrotation Zrotation
					JOINT LeftArm
					{
						OFFSET 19.027000 -4.857010 -1.718400
						CHANNELS 3 Xrotation Yrotation Zrotation
						JOINT LeftForeArm
						{
							OFFSET 24.179897 0.000000 0.000000
							CHANNELS 3 Xrotation Yrotation Zrotation
							JOINT LeftHand
							{
								OFFSET 27.156403 0.000000 0.000000
								CHANNELS 3 Xrotation Yrotation Zrotation
								JOINT LeftHandIndex1
								{
									OFFSET 16.441200 0.000000 0.000000
									CHANNELS 3 Xrotation Yrotation Zrotation
									JOINT LeftHandIndex2
									{
										OFFSET 4.821899 0.000000 0.000000
										CHANNELS 3 Xrotation Yrotation Zrotation
										JOINT LeftHandIndex3
										{
											OFFSET 6.386497 0.000000 0.000000
											CHANNELS 3 Xrotation Yrotation Zrotation
											JOINT LeftHandIndex4
											{
												OFFSET 5.188988 0.000000 0.000000
												CHANNELS 3 Xrotation Yrotation Zrotation
												End Site
												{
													OFFSET -0.178703 5.185913 0.000177
												}
											}
										}
									}
								}
								JOINT LeftHandThumb1
								{
									OFFSET 6.534897 -5.032593 5.900300
									CHANNELS 3 Xrotation Yrotation Zrotation
									JOINT LeftHandThumb2
									{
										OFFSET 3.818176 -2.204422 2.204423
										CHANNELS 3 Xrotation Yrotation Zrotation
										JOINT LeftHandThumb3
										{
											OFFSET 3.252098 -1.877594 1.877601
											CHANNELS 3 Xrotation Yrotation Zrotation
											JOINT LeftHandThumb4
											{
												OFFSET 5.251778 -3.032120 3.032117
												CHANNELS 3 Xrotation Yrotation Zrotation
												End Site
												{
													OFFSET 0.000023 6.780014 0.000000
												}
											}
										}
									}
								}
							}
						}
					}
				}
				JOINT RightShoulder
				{
					OFFSET -12.896300 26.716293 -4.548400
					CHANNELS 3 Xrotation Yrotation Zrotation
					JOINT RightArm
					{
						OFFSET -19.027000 -4.857010 -1.718400
						CHANNELS 3 Xrotation Yrotation Zrotation
						JOINT RightForeArm
						{
							OFFSET -24.179897 0.000000 0.000000
							CHANNELS 3 Xrotation Yrotation Zrotation
							JOINT RightHand
							{
								OFFSET -27.156403 0.000000 0.000000
								CHANNELS 3 Xrotation Yrotation Zrotation
								JOINT RightHandThumb1
								{
									OFFSET -6.591202 -4.852203 5.988100
									CHANNELS 3 Xrotation Yrotation Zrotation
									JOINT RightHandThumb2
									{
										OFFSET -3.818176 -2.204422 2.204423
										CHANNELS 3 Xrotation Yrotation Zrotation
										JOINT RightHandThumb3
										{
											OFFSET -3.252098 -1.877594 1.877601
											CHANNELS 3 Xrotation Yrotation Zrotation
											JOINT RightHandThumb4
											{
												OFFSET -5.251778 -3.032120 3.032117
												CHANNELS 3 Xrotation Yrotation Zrotation
												End Site
												{
													OFFSET -0.000023 6.780014 0.000000
												}
											}
										}
									}
								}
								JOINT RightHandIndex1
								{
									OFFSET -16.029404 0.000000 0.000000
									CHANNELS 3 Xrotation Yrotation Zrotation
									JOINT RightHandIndex2
									{
										OFFSET -5.213303 0.000000 0.000000
										CHANNELS 3 Xrotation Yrotation Zrotation
										JOINT RightHandIndex3
										{
											OFFSET -6.386528 0.000000 0.000000
											CHANNELS 3 Xrotation Yrotation Zrotation
											JOINT RightHandIndex4
											{
												OFFSET -5.189026 0.000000 0.000000
												CHANNELS 3 Xrotation Yrotation Zrotation
												End Site
												{
													OFFSET 0.236702 5.183624 0.001972
												}
											}
										}
									}
								}
							}
						}
					}
				}
			}
		}
	}
	JOINT LeftUpLeg
	{
		OFFSET 14.073000 -7.904099 -1.463000
		CHANNELS 3 Xrotation Yrotation Zrotation
		JOINT LeftLeg
		{
			OFFSET -0.109806 -34.073280 4.093200
			CHANNELS 3 Xrotation Yrotation Zrotation
			JOINT LeftFoot
			{
				OFFSET 0.109806 -29.899420 -6.319000
				CHANNELS 3 Xrotation Yrotation Zrotation
				JOINT LeftToeBase
				{
					OFFSET 1.551100 -14.988700 20.535801
					CHANNELS 3 Xrotation Yrotation Zrotation
					JOINT LeftToe_End
					{
						OFFSET 0.221200 0.570800 13.248301
						CHANNELS 3 Xrotation Yrotation Zrotation
						End Site
						{
							OFFSET 0.000000 13.262435 0.000000
						}
					}
				}
			}
		}
	}
	JOINT RightUpLeg
	{
		OFFSET -13.839300 -7.904099 -1.463000
		CHANNELS 3 Xrotation Yrotation Zrotation
		JOINT RightLeg
		{
			OFFSET 0.109694 -34.073219 4.093300
			CHANNELS 3 Xrotation Yrotation Zrotation
			JOINT RightFoot
			{
				OFFSET -0.109694 -29.899384 -6.319200
				CHANNELS 3 Xrotation Yrotation Zrotation
				JOINT RightToeBase
				{
					OFFSET -1.551100 -14.988700 20.535801
					CHANNELS 3 Xrotation Yrotation Zrotation
					JOINT RightToe_End
					{
						OFFSET -0.221200 0.570900 13.248299
						CHANNELS 3 Xrotation Yrotation Zrotation
						End Site
						{
							OFFSET 0.000000 13.262440 0.000000
						}
					}
				}
			}
		}
	}
}
MOTION
Frames: 9
Frame Time: 0.033333
-0.384435 71.819778 -0.075107 -5.398681 -46.211991 -0.238005 9.452229 7.171238 -1.616317 2.187718 0.983530 -0.925308 2.202829 0.980150 -0.902959 0.084648 13.220554 4.538683 8.920922 20.138135 -4.137596 -0.000000 -0.000000 0.000000 1.117269 3.546315 -8.634852 -53.487037 4.935509 -51.503004 0.000108 -106.358073 0.000101 1.988591 -7.706160 -15.869241 0.255315 3.378218 -45.814331 5.654096 5.847752 -88.067462 2.162139 4.544822 -50.866376 -0.000000 0.000002 -0.000001 -6.141219 -11.690804 -6.761668 9.914125 42.595522 3.409837 -0.422796 8.108085 27.509092 -0.000003 -0.000001 0.000002 3.036121 13.027202 -5.371407 -48.713729 27.172840 83.457064 -0.000004 105.988280 -0.000019 -8.345373 17.548084 8.775672 -7.341097 13.749659 7.412333 9.855767 -44.489093 -3.903246 -0.115776 -14.513080 -28.973878 -0.000002 -0.000002 -0.000000 -0.124376 -2.384784 45.108881 4.500588 -4.654548 88.071143 1.723224 -3.618378 50.920095 0.000000 -0.000002 -0.000001 -31.861637 6.395823 19.963910 59.337719 -8.188226 3.970983 -25.244637 -6.905800 -16.448559 -1.594039 -0.000022 0.000005 -0.000000 0.000002 0.000000 -18.985786 -11.114245 -32.041203 59.474419 -5.223685 -6.736868 -30.568460 -9.909921 26.195381 -0.013015 0.000009 -0.000001 0.000000 0.000001 0.000000 
-0.296042 71.847412 0.132373 -4.952848 -45.832396 0.033114 9.246757 7.163265 -2.305137 2.269262 0.985554 -0.932794 2.285112 0.981951 -0.908987 0.138074 13.037603 4.579571 8.869099 19.654824 -4.035616 0.000002 -0.000000 -0.000001 1.052836 3.665041 -8.636721 -53.323212 4.459566 -51.437478 0.000142 -106.686216 0.000167 2.214456 -7.184819 -15.824030 0.255317 3.378218 -45.814331 5.654097 5.847751 -88.067455 2.162138 4.544817 -50.866379 -0.000000 -0.000002 0.000002 -6.141219 -11.690800 -6.761671 9.914128 42.595519 3.409842 -0.422797 8.108081 27.509094 -0.000002 -0.000002 0.000003 2.990820 12.979499 -5.420024 -48.230244 26.646895 82.824260 0.000011 107.248737 -0.000005 -8.750979 15.928558 8.434981 -7.341097 13.749660 7.412330 9.855764 -44.489096 -3.903249 -0.115777 -14.513083 -28.973874 0.000001 -0.000002 0.000001 -0.124375 -2.384782 45.108881 4.500586 -4.654547 88.071137 1.723224 -3.618381 50.920098 0.000001 -0.000002 -0.000002 -32.756146 6.027488 19.555907 60.062860 -7.512977 4.224603 -24.759383 -7.372890 -16.508627 -2.968272 -0.000010 0.000003 -0.000000 0.000000 0.000000 -18.181274 -10.212184 -31.616474 59.142786 -5.002801 -6.083871 -30.363906 -11.180796 26.129556 0.023294 -0.000015 0.032434 -0.000000 -0.000001 0.000001 
-0.179859 71.959778 0.428856 -4.486465 -44.489605 0.341199 8.925520 7.172055 -2.969001 2.360342 0.982012 -0.909990 2.375039 0.979346 -0.886715 0.273105 12.694346 4.606611 9.014739 18.805893 -3.866056 0.000001 0.000000 -0.000000 0.968027 3.825189 -8.639718 -52.819608 3.467638 -51.801148 0.000046 -106.752817 0.000058 2.617305 -7.112281 -15.714547 0.255314 3.378216 -45.814331 5.654096 5.847751 -88.067462 2.162139 4.544822 -50.866379 0.000000 -0.000002 -0.000003 -6.141221 -11.690799 -6.761672 9.914115 42.595522 3.409838 -0.422795 8.108079 27.509089 -0.000002 -0.000003 0.000002 2.959807 12.920904 -5.437249 -47.055147 25.829940 81.708494 0.000135 108.799142 -0.000149 -9.118543 14.399430 7.898835 -7.341098 13.749657 7.412335 9.855765 -44.489096 -3.903241 -0.115777 -14.513085 -28.973874 -0.000001 0.000001 0.000001 -0.124375 -2.384781 45.108878 4.500586 -4.654549 88.071143 1.723224 -3.618382 50.920098 0.000001 0.000001 -0.000004 -34.404558 5.541872 18.964510 61.017577 -6.978601 4.480063 -23.468750 -8.803673 -16.204310 -5.399458 -0.000003 0.000001 0.000000 0.000000 0.000000 -16.755808 -9.988182 -31.324945 58.344173 -4.631547 -5.251331 -30.133623 -12.992035 25.979159 -0.140014 -0.000034 -0.000006 -0.000000 -0.000001 -0.000000 
0.020446 72.051987 0.804240 -4.020626 -42.397703 0.644495 8.497043 7.201733 -3.693480 2.435674 0.974668 -0.834337 2.447291 0.974548 -0.813835 0.462666 12.195018 4.672706 9.358665 17.617003 -3.565490 -0.000000 -0.000000 -0.000001 0.846549 4.042070 -8.637654 -51.931028 1.947965 -52.530302 0.000258 -106.821106 0.000262 3.352541 -7.369663 -15.539944 0.255313 3.378217 -45.814331 5.654095 5.847752 -88.067462 2.162138 4.544824 -50.866376 -0.000001 0.000001 -0.000001 -6.141220 -11.690802 -6.761670 9.914120 42.595519 3.409843 -0.422797 8.108083 27.509094 0.000002 -0.000002 0.000003 2.956363 12.849378 -5.399508 -45.115787 24.501864 80.036116 -0.000030 110.675272 0.000033 -9.610805 13.056632 7.200508 -7.341094 13.749660 7.412333 9.855768 -44.489096 -3.903249 -0.115774 -14.513083 -28.973878 -0.000000 0.000001 -0.000002 -0.124374 -2.384783 45.108874 4.500588 -4.654548 88.071137 1.723224 -3.618376 50.920092 0.000001 -0.000002 0.000001 -36.199856 5.189941 18.269192 61.871822 -5.792613 4.659567 -22.244821 -10.967773 -15.895505 -7.339590 0.000009 -0.000002 -0.000000 0.000000 0.000000 -14.845717 -10.093876 -31.045150 57.313142 -4.295310 -4.313959 -29.878717 -15.304833 25.924065 -0.492287 0.000043 -0.000003 0.000000 -0.000000 -0.000000 
0.236815 72.183479 1.280475 -3.566694 -39.783308 0.927990 8.012106 7.270624 -4.551837 2.464281 0.979293 -0.720463 2.474791 0.981527 -0.698256 0.662381 11.568508 4.836613 9.790198 16.165113 -3.083423 -0.000000 0.000000 0.000001 0.681600 4.320776 -8.623927 -50.745922 -0.195637 -53.543981 0.000052 -107.070223 0.000057 4.515634 -7.639118 -15.263863 0.255314 3.378217 -45.814331 5.654092 5.847751 -88.067462 2.162138 4.544821 -50.866372 -0.000001 0.000002 -0.000001 -6.141219 -11.690801 -6.761672 9.914121 42.595515 3.409841 -0.422797 8.108083 27.509094 -0.000000 0.000001 0.000000 2.981110 12.769347 -5.310399 -42.460520 22.492018 77.949295 0.000110 112.920027 -0.000123 -10.292938 11.960679 6.365851 -7.341098 13.749658 7.412339 9.855770 -44.489093 -3.903243 -0.115778 -14.513083 -28.973878 0.000002 0.000000 0.000001 -0.124376 -2.384784 45.108881 4.500582 -4.654549 88.071137 1.723227 -3.618381 50.920088 0.000001 -0.000000 0.000004 -38.868581 4.402248 17.813362 63.312971 -6.063715 4.505470 -20.055466 -13.039438 -15.953437 -6.295097 0.000006 -0.000001 0.000000 -0.000001 -0.000000 -12.426033 -10.474212 -30.519075 55.851509 -4.113327 -3.500067 -29.484824 -18.089218 26.042210 -0.839421 0.000009 -0.000003 0.000000 -0.000000 0.000000 
0.479361 72.263092 1.838631 -3.126001 -36.867124 1.184189 7.487492 7.388933 -5.501061 2.432216 1.010258 -0.610995 2.446870 1.011989 -0.576661 0.825076 10.866725 5.121415 10.156477 14.558724 -2.439242 -0.000001 -0.000000 0.000000 0.480913 4.650923 -8.594929 -49.462673 -3.006843 -54.850828 -0.000141 -107.471251 -0.000148 5.814356 -7.498905 -14.809196 0.255314 3.378219 -45.814327 5.654096 5.847752 -88.067462 2.162137 4.544822 -50.866372 0.000001 -0.000001 -0.000000 -6.141220 -11.690800 -6.761663 9.914114 42.595519 3.409840 -0.422797 8.108089 27.509091 -0.000002 0.000002 -0.000002 3.045270 12.706961 -5.169335 -39.377294 19.956923 75.934314 0.000031 115.561063 -0.000047 -11.021094 10.996804 5.419923 -7.341096 13.749653 7.412333 9.855768 -44.489096 -3.903242 -0.115776 -14.513083 -28.973874 -0.000003 -0.000002 -0.000000 -0.124375 -2.384783 45.108878 4.500582 -4.654549 88.071143 1.723224 -3.618379 50.920098 0.000000 -0.000002 -0.000002 -41.689234 3.632556 17.154249 64.749831 -6.831922 4.192192 -17.604833 -14.203744 -15.897699 -5.949345 -0.009771 0.780436 0.000000 0.000001 -0.000000 -9.778252 -11.050672 -29.757058 54.192073 -4.317730 -2.997159 -28.939535 -20.985223 26.583134 -1.227960 0.000008 0.000001 0.000000 0.000000 -0.000000 
0.731714 72.326904 2.454787 -2.691863 -33.869556 1.425520 6.815769 7.580761 -6.440603 2.353223 1.042257 -0.510933 2.368133 1.043987 -0.470591 0.868079 10.153234 5.514191 10.474133 12.918753 -1.723445 -0.000003 -0.000000 0.000000 0.247965 5.008276 -8.540216 -48.200290 -6.263523 -56.584835 0.000054 -107.869068 0.000060 6.633878 -6.577371 -14.104612 0.255317 3.378219 -45.814331 5.654092 5.847750 -88.067462 2.162137 4.544819 -50.866379 -0.000000 0.000001 0.000003 -6.141217 -11.690799 -6.761669 9.914125 42.595522 3.409842 -0.422795 8.108081 27.509089 -0.000000 0.000002 -0.000001 3.205989 12.726869 -4.908060 -36.357995 17.377518 74.540108 0.000026 118.478265 -0.000038 -11.659045 9.879161 4.445116 -7.341095 13.749657 7.412336 9.855765 -44.489096 -3.903246 -0.115771 -14.513085 -28.973871 -0.000001 -0.000000 0.000000 -0.124376 -2.384788 45.108878 4.500585 -4.654546 88.071143 1.723223 -3.618379 50.920095 0.000000 0.000002 0.000003 -44.255893 3.112059 16.381048 65.529593 -7.853207 3.640022 -15.311558 -14.143370 -16.114242 -5.339442 -0.098214 2.464787 -0.000000 -0.000000 -0.000000 -7.046332 -11.755182 -28.798905 52.329576 -4.722598 -2.715869 -28.187783 -23.914424 27.369657 -1.732964 0.000002 -0.000010 0.000000 -0.000000 0.000000 
0.978093 72.416191 3.126885 -2.252217 -31.006409 1.660183 5.812600 7.932739 -7.329361 2.250382 1.031841 -0.375267 2.246792 1.042217 -0.363564 0.642113 9.480896 6.013055 10.973690 11.353079 -1.025950 -0.000002 -0.000000 0.000001 -0.036082 5.373869 -8.434438 -46.907400 -9.617267 -58.850228 0.000152 -108.119982 0.000154 6.660569 -4.741322 -13.157711 0.255315 3.378216 -45.814331 5.654092 5.847751 -88.067462 2.162140 4.544821 -50.866372 0.000001 0.000001 0.000001 -6.141219 -11.690802 -6.761670 9.914125 42.595522 3.409836 -0.422796 8.108083 27.509092 -0.000001 -0.000002 0.000003 3.495665 12.862194 -4.461127 -33.907180 15.060133 73.950540 0.000052 121.286265 -0.000069 -12.466539 8.407598 3.552714 -7.341096 13.749657 7.412332 9.855768 -44.489093 -3.903249 -0.115778 -14.513080 -28.973881 0.000001 -0.000003 0.000002 -0.124375 -2.384779 45.108881 4.500588 -4.654549 88.071137 1.723223 -3.618382 50.920095 -0.000000 -0.000004 -0.000000 -46.264959 3.039863 15.818853 65.053003 -8.632526 2.690464 -13.554668 -13.552538 -16.861673 -3.631183 -0.236849 3.821580 -0.000000 -0.000001 -0.000000 -4.362159 -12.477928 -27.716501 50.239402 -4.900924 -2.584854 -27.415667 -26.761504 27.953376 -2.361451 0.000020 -0.000005 -0.000000 -0.000000 -0.000000 
1.211674 72.512695 3.854940 -1.791546 -28.491545 1.887088 4.358427 8.594538 -8.142428 2.140820 1.067392 -0.232068 2.123737 1.082596 -0.240184 0.067083 8.824197 6.634474 11.780971 9.788391 -0.391807 -0.000001 -0.000000 -0.000000 -0.396967 5.821146 -8.272567 -45.509813 -13.280156 -61.662210 0.000154 -108.130132 0.000156 6.183754 -2.159478 -12.027606 0.255315 3.378217 -45.814334 5.654094 5.847753 -88.067462 2.162136 4.544821 -50.866376 -0.000001 0.000001 -0.000001 -6.141218 -11.690802 -6.761666 9.914129 42.595522 3.409836 -0.422797 8.108085 27.509094 0.000003 -0.000001 -0.000000 3.773865 12.943851 -3.970369 -32.056953 12.742523 73.880456 -0.000048 123.628801 0.000046 -13.928087 6.663521 2.601424 -7.341095 13.749659 7.412331 9.855768 -44.489096 -3.903246 -0.115775 -14.513083 -28.973878 -0.000000 -0.000001 0.000001 -0.124375 -2.384783 45.108878 4.500584 -4.654550 88.071143 1.723223 -3.618379 50.920095 0.000000 0.000000 0.000001 -47.243394 3.845329 14.977179 64.318211 -7.928292 1.556066 -15.091023 -13.228107 -15.341862 1.255815 -0.008557 0.736257 0.000000 -0.000000 -0.000000 -1.860742 -13.163076 -26.606100 47.929469 -4.825694 -2.662257 -26.509617 -29.495328 28.527625 -2.909457 0.000013 0.000002 0.000000 0.000001 -0.000000 
